<svg width="174" height="89" viewBox="0 0 174 89" fill="none" xmlns="http://www.w3.org/2000/svg">
<path d="M152.825 6.07861C151.645 7.53242 150.417 8.94754 149.201 10.3723C148.789 10.8559 148.373 11.3362 147.841 11.9519C150.423 11.5747 164.913 9.25378 167.324 8.90241L174 11.8294C170.683 12.5998 148.615 15.6589 145.294 16.4068C144.659 16.5486 144.215 16.8258 143.847 17.3899C139.299 24.4333 134.708 31.4477 130.186 38.504C129.477 39.6129 129.016 40.8894 128.513 42.1175C128.39 42.4173 128.552 42.8332 128.581 43.1942C128.916 43.1168 129.319 43.1329 129.57 42.946C131.134 41.7855 132.71 40.6347 134.186 39.3711C136.056 37.769 137.838 36.0605 139.657 34.3972C139.734 34.3295 139.798 34.2231 139.889 34.1973C140.214 34.1071 140.649 33.8814 140.849 34.0104C141.107 34.1748 141.355 34.6648 141.297 34.9517C141.146 35.6898 140.949 36.4764 140.546 37.0953C139.727 38.3621 138.841 39.6064 137.832 40.7282C136.033 42.7268 134.247 44.7737 132.226 46.537C129.054 49.3124 126.756 49.3833 123.026 46.5144C122.027 45.7472 121.424 44.7511 121.508 43.3102C120.338 44.5739 119.313 45.7859 118.175 46.8787C117.218 47.7974 116.17 48.6355 115.087 49.4059C114.165 50.0603 113.095 50.1634 112.002 49.7895C110.223 49.1835 109.285 47.4847 109.881 45.4313C110.574 43.0524 111.486 40.7379 112.305 38.3944C112.618 37.5015 112.927 36.6053 113.224 35.7092C113.291 35.5061 113.311 35.2869 113.401 34.8453C112.946 35.1999 112.647 35.3901 112.395 35.6318C107.702 40.148 103.369 44.9671 99.9912 50.576C99.3852 51.585 98.2505 51.6817 97.4253 50.7727C96.7677 50.0474 96.5452 49.1674 96.6033 48.21C96.6323 47.7522 96.7064 47.2977 96.7773 46.6756C96.123 47.4428 95.5943 48.1423 94.9786 48.758C93.8923 49.8443 92.7963 50.9306 91.6294 51.9267C90.398 52.9776 89.0409 52.7229 87.7612 51.9783C86.5008 51.2465 86.201 50.0216 86.259 48.6645C86.2719 48.3486 86.3299 48.0327 86.3686 47.72C84.9567 49.2028 83.6415 50.705 82.1877 52.0589C81.3399 52.8486 80.3116 53.4804 79.2865 54.0381C78.1712 54.6441 77.0107 54.412 76.0308 53.6609C74.5737 52.5424 73.842 51.0596 74.1128 49.0191C73.6776 49.4156 73.3295 49.7315 72.9813 50.0506C71.1471 51.7301 69.3355 53.4385 67.4627 55.0825C66.5794 55.8594 65.5318 56.3816 64.2875 56.1334C62.3179 55.7401 61.1123 53.9801 61.6345 51.8945C62.0923 50.0732 62.6725 48.2293 63.5461 46.5789C65.0773 43.6842 66.876 40.9345 68.5651 38.1236C68.8133 37.7078 69.0776 37.3016 69.4193 36.76C69.1034 36.8052 68.9165 36.8084 68.7456 36.86C66.6117 37.5015 64.4745 38.1204 62.3598 38.8199C61.9795 38.9456 61.6152 39.3485 61.4057 39.716C56.1932 48.8998 50.9969 58.0901 45.82 67.29C44.8529 69.0081 43.9826 70.781 43.051 72.5217C42.3901 73.7596 41.6713 73.8724 40.6043 72.9666C38.8249 71.4548 38.6315 69.4755 39.3052 67.4866C40.2884 64.5854 41.3715 61.6972 42.6867 58.9314C45.1301 53.7996 47.7734 48.7612 50.3361 43.6809C50.4618 43.4327 50.5875 43.1813 50.781 42.8009C50.3619 42.9234 50.0557 42.9976 49.7656 43.1072C46.0198 44.49 42.864 45.9116 39.1344 47.3364L43.4829 39.4839C47.0062 38.3879 50.536 37.3048 54.0464 36.1701C54.4654 36.0348 54.8233 35.7511 55.0489 35.3739C59.8938 27.3055 64.7742 19.2596 70.1543 11.536C70.9892 10.3369 71.8918 9.18286 72.8298 8.0643C74.1386 6.50089 75.0798 6.75555 77.2009 8.57361C77.3782 8.72512 77.549 8.87985 77.707 9.04747C79.019 10.4368 79.1737 11.6585 78.1744 13.2574C76.3692 16.1489 74.4996 19.0017 72.6558 21.8706C70.4509 25.3004 68.246 28.7303 66.0411 32.1601C65.8638 32.4373 65.6962 32.7242 65.4157 33.1852C66.4473 32.9595 67.3273 32.7919 68.1912 32.5727C70.1994 32.0634 72.2045 31.5283 74.2063 30.9964C75.4473 30.6676 77.8617 31.7991 78.226 33.024C78.3646 33.4882 78.2131 34.1748 77.9455 34.6003C76.5078 36.8761 74.9799 39.0939 73.5035 41.3439C72.1948 43.336 70.9118 45.3475 69.6256 47.3525C69.4226 47.6717 69.2614 48.0198 68.9906 48.5259C69.2872 48.3776 69.4419 48.3293 69.5579 48.239C71.5114 46.7304 73.4584 45.2218 75.4054 43.7035C75.5859 43.5617 75.8438 43.2941 75.9792 43.1072C78.6708 39.3904 81.3464 35.6641 84.0638 31.9667C84.5151 31.3542 85.134 30.861 85.6884 30.3324C86.649 29.4201 87.7128 29.3685 88.8733 29.9423C90.0531 30.5258 90.3851 31.4703 89.7049 32.5888C87.7837 35.7414 85.8142 38.865 83.9252 42.0369C82.9807 43.6197 82.1587 45.2734 81.3044 46.9045C81.1529 47.1978 81.1175 47.5524 81.0304 47.878C81.1143 47.9457 81.1949 48.0101 81.2787 48.0778C81.8557 47.6523 82.5262 47.3106 82.9936 46.7852C84.4377 45.1541 85.8786 43.5069 87.1874 41.7694C90.398 37.5079 93.5377 33.1916 96.7064 28.8979C97.522 27.7922 98.344 27.6826 99.5979 28.5046C99.7945 28.6336 99.9847 28.7786 100.162 28.9333C101.613 30.1808 101.732 30.7772 100.7 32.389C98.7534 35.4352 96.729 38.4331 94.8207 41.5018C93.9858 42.8428 93.3411 44.3031 92.6416 45.7247C92.4707 46.076 92.4224 46.4886 92.3192 46.8722L92.4868 46.9915C92.8769 46.7207 93.283 46.4693 93.6537 46.1759C96.6806 43.8002 99.0918 40.9152 100.978 37.5498C102.831 34.2425 104.794 30.9932 106.725 27.7278C107.376 26.6221 107.815 26.4899 109.007 27.0121C109.507 27.2313 109.974 27.5214 110.387 27.8793C111.357 28.7303 111.499 29.404 111.006 30.6644C110.616 31.6637 110.158 32.6372 109.668 33.7654C109.903 33.5752 110.055 33.4753 110.177 33.3496C112.569 30.9448 114.945 28.5304 117.353 26.1418C118.007 25.4939 118.7 24.8653 119.458 24.3495C120.844 23.4018 123.771 23.9143 124.822 25.2328C125.347 25.8903 125.196 26.5802 124.822 27.2474C123.732 29.1912 122.578 31.106 121.553 33.082C120.08 35.9219 118.691 38.8038 117.276 41.6727C117.144 41.9402 117.076 42.2368 116.979 42.5205L117.15 42.6397C118.252 41.7662 119.336 40.8668 120.461 40.0255C122.272 38.6684 123.465 36.918 124.393 34.8163C126.762 29.4491 129.722 24.3688 133.293 19.7141C133.49 19.4562 133.583 19.3015 133.877 18.8566C132.819 18.992 131.901 19.0952 130.985 19.2241C125.173 20.0397 119.361 20.8488 113.553 21.6804C109.874 22.2059 106.203 22.7861 102.522 23.2857C101.358 23.4437 100.168 23.4727 98.9887 23.4792C97.7831 23.4888 96.9031 22.8248 96.2551 21.8674C95.7909 21.184 96.0553 20.5458 96.8773 20.391C99.8977 19.8205 102.918 19.2596 105.948 18.7438C111.654 17.7703 117.366 16.829 123.075 15.8717C127.697 15.0948 132.32 14.3211 136.939 13.5153C137.265 13.4572 137.558 13.2799 137.758 13.0124C138.899 11.4812 140.008 9.92104 141.11 8.36086C141.745 7.4615 142.561 6.86837 143.66 6.65562C146.5 6.10762 149.334 5.53061 152.177 4.98584L152.641 4.89558C153.086 4.80855 153.402 5.31786 153.128 5.67889L152.825 6.07216V6.07861Z" fill="white"/>
<path d="M58.7303 5.38877C61.4736 -0.603747 56.3707 0.0183921 56.3707 0.0183921C53.5856 0.443896 50.9488 1.30458 48.3506 2.34255C41.391 5.12122 35.131 9.10871 29.1384 13.5443C24.5933 16.9096 20.2899 20.5586 16.3508 24.6332C15.345 25.6711 14.8196 26.8864 14.9485 28.3177C15.129 30.3066 15.7351 32.1762 16.7344 33.9105C17.2759 34.8453 17.7884 34.9033 18.5363 34.1168C20.09 32.476 21.6212 30.8127 23.1943 29.1912C28.5969 23.6178 34.1575 18.2184 40.4498 13.6345C44.0246 11.0299 47.7833 8.74123 52.0061 7.31321C52.4026 7.18105 52.3768 7.66135 52.9441 7.51307C46.2457 18.6503 39.5214 29.7682 32.8036 40.8958L26.7788 50.9693C21.6567 59.1313 16.5506 67.3029 11.4252 75.4616C10.9352 76.2417 10.355 76.9637 9.80056 77.6987C9.62327 77.934 9.38795 78.1242 9.03659 78.4788C8.89798 77.9115 8.77226 77.5085 8.70134 77.0959C7.95993 72.699 8.19525 68.3086 8.80127 63.9246C9.46532 59.0926 9.57169 58.0095 10.1358 56.056C10.1358 56.056 10.2648 55.6015 10.355 54.9149L0.835961 58.1255C0.00751715 64.6435 -0.334175 71.184 0.413681 77.76C0.729586 80.5386 1.21956 83.269 2.16405 85.9251C3.79515 90.5186 11.1383 88.6909 13.2304 86.4022C14.7035 84.7872 15.9833 82.9595 17.1373 81.0963C21.1312 74.646 25.0317 68.1378 28.9676 61.652L34.454 51.801C42.0454 38.9101 49.1146 25.7421 55.581 12.2516C56.6673 9.98551 57.6634 7.67425 58.7303 5.39844V5.38877Z" fill="white"/>
</svg>
